# xmcd
#
# Track frame offsets:
#	150
#	12535
#	26542
#	42257
#	52377
#	64022
#	74052
#	86555
#	97152
#	111602
#	121800
#	133215
#	142872
#	152972
#
# Disc length: 2204 seconds
#
# Revision: 5
# Processed by: cddbd v1.5.2PL0 Copyright (c) Steve Scherf et al.
# Submitted via: audiograbber 1.80.04
#
DISCID=d7089a0e
DTITLE=Vários Artistas - 30 Anos de Jovem Guarda 4 - É Papo Firme
DYEAR=1995
DGENRE=Rock Nacional
TTITLE0=Wanderléa - Ternura (Somehow It Got To Be Tomorrow - Today)
TTITLE1=Sérgio Reis - Coração de Papel
TTITLE2=Os Incríveis - Era Um Garoto Que Como Eu Amava Os Beatles E Os Rolling 
TTITLE2=Stones
TTITLE3=Renato E Seus Blue Caps - Feche Os Olhos (All My Loving)
TTITLE4=Leno - O Rítmo da Chuva (Rhythm Of The Rain)
TTITLE5=Waldirene - Garota do Roberto
TTITLE6=Erasmo Carlos - Gatinha Manhosa
TTITLE7=Os Vips - Parei Na Contramão
TTITLE8=Martinha - Nossa Canção
TTITLE9=Golden Boys - Ai de Mim (All Of Me)
TTITLE10=Eduardo Araújo - É Papo Firme
TTITLE11=Jerry Adriani - Broto Legal (I'm In Love)
TTITLE12=Trio Esperança - O Passo do Elefantinho (Baby Elephant Walk)
TTITLE13=Wanderley Cardoso - Doce de Côco
EXTD=
EXTT0=
EXTT1=
EXTT2=
EXTT3=
EXTT4=
EXTT5=
EXTT6=
EXTT7=
EXTT8=
EXTT9=
EXTT10=
EXTT11=
EXTT12=
EXTT13=
PLAYORDER=
